<?xml version="1.0" encoding="UTF-8" standalone="no"?>
<svg
   xmlns:dc="http://purl.org/dc/elements/1.1/"
   xmlns:cc="http://creativecommons.org/ns#"
   xmlns:rdf="http://www.w3.org/1999/02/22-rdf-syntax-ns#"
   xmlns:svg="http://www.w3.org/2000/svg"
   xmlns="http://www.w3.org/2000/svg"
   viewBox="0 0 793.76001 1122.5601"
   height="1122.5601"
   width="793.76001"
   xml:space="preserve"
   id="svg2"
   version="1.1"><metadata
     id="metadata8"><rdf:RDF><cc:Work
         rdf:about=""><dc:format>image/svg+xml</dc:format><dc:type
           rdf:resource="http://purl.org/dc/dcmitype/StillImage" /></cc:Work></rdf:RDF></metadata><defs
     id="defs6" /><g
     transform="translate(0,6.9397335e-5)"
     id="g10"><g
       id="g12"><text
         id="text16"
         style="font-variant:normal;font-weight:normal;font-size:17.60070038px;font-family:F1;-inkscape-font-specification:F1;writing-mode:lr-tb;fill:#000000;fill-opacity:1;fill-rule:nonzero;stroke:none"
         transform="translate(132.48,154.24)"><tspan
           id="tspan14"
           y="0"
           x="0 17.6007 35.201401 45.290863 62.891563 72.981026 83.070488 100.67119 110.76066 120.85012 138.45082 145.52376 163.12445">令和4年10月29日(土)</tspan></text>
</g><g
       id="g18"><text
         id="text22"
         style="font-variant:normal;font-weight:normal;font-size:17.60070038px;font-family:F1;-inkscape-font-specification:F1;writing-mode:lr-tb;fill:#000000;fill-opacity:1;fill-rule:nonzero;stroke:none"
         transform="translate(225.60001,225.28)"><tspan
           id="tspan20"
           y="0"
           x="0 17.6007 35.201401 52.802101 57.730297 233.38528 250.98598 268.58667 286.18738 303.78809 310.86102 328.46173 346.06241 353.13535 358.06357">愛子駅 発仙台高専(広瀬) 着</tspan></text>
</g><g
       id="g24"><text
         id="text28"
         style="font-variant:normal;font-weight:normal;font-size:17.60070038px;font-family:F2;-inkscape-font-specification:F2;writing-mode:lr-tb;fill:#000000;fill-opacity:1;fill-rule:nonzero;stroke:none"
         transform="translate(246.24,256.32001)"><tspan
           id="tspan26"
           y="0"
           x="0 9.6803846 14.784588 24.464973 266.8266 276.6153 281.61703 291.29742">9:109:15</tspan></text>
</g><g
       id="g30"><text
         id="text34"
         style="font-variant:normal;font-weight:normal;font-size:17.60070038px;font-family:F2;-inkscape-font-specification:F2;writing-mode:lr-tb;fill:#000000;fill-opacity:1;fill-rule:nonzero;stroke:none"
         transform="translate(246.24,287.35999)"><tspan
           id="tspan32"
           y="0"
           x="0 9.6803846 14.784588 24.464973 266.8266 276.6153 281.61703 291.29742">9:409:45</tspan></text>
</g><g
       id="g36"><text
         id="text40"
         style="font-variant:normal;font-weight:normal;font-size:17.60070038px;font-family:F2;-inkscape-font-specification:F2;writing-mode:lr-tb;fill:#000000;fill-opacity:1;fill-rule:nonzero;stroke:none"
         transform="translate(241.28,318.39999)"><tspan
           id="tspan38"
           y="0"
           x="0 9.6803846 19.469055 24.470818 34.259487 266.94073 276.62112 286.40979 291.41156 301.09195">10:1010:15</tspan></text>
</g><g
       id="g42"><text
         id="text46"
         style="font-variant:normal;font-weight:normal;font-size:17.60070038px;font-family:F2;-inkscape-font-specification:F2;writing-mode:lr-tb;fill:#000000;fill-opacity:1;fill-rule:nonzero;stroke:none"
         transform="translate(241.28,349.44)"><tspan
           id="tspan44"
           y="0"
           x="0 9.6803846 19.469055 24.470818 34.259487 266.94073 276.62112 286.40979 291.41156 301.09195">10:4010:45</tspan></text>
</g><g
       id="g48"><text
         id="text52"
         style="font-variant:normal;font-weight:normal;font-size:17.60070038px;font-family:F2;-inkscape-font-specification:F2;writing-mode:lr-tb;fill:#000000;fill-opacity:1;fill-rule:nonzero;stroke:none"
         transform="translate(241.28,380.48001)"><tspan
           id="tspan50"
           y="0"
           x="0 9.6803846 19.469055 24.470818 34.259487 266.94073 276.62112 286.40979 291.41156 301.09195">11:2011:25</tspan></text>
</g><g
       id="g54"><text
         id="text58"
         style="font-variant:normal;font-weight:normal;font-size:17.60070038px;font-family:F1;-inkscape-font-specification:F1;writing-mode:lr-tb;fill:#000000;fill-opacity:1;fill-rule:nonzero;stroke:none"
         transform="translate(192.16,442.56)"><tspan
           id="tspan56"
           y="0"
           x="0 17.6007 35.201401 52.802101 70.402802 77.475739 95.076439 112.67714 119.75008 124.67827 300.33325 317.93396 335.53467 353.13535 358.06357">仙台高専(広瀬) 発愛子駅 着</tspan></text>
</g><g
       id="g60"><text
         id="text64"
         style="font-variant:normal;font-weight:normal;font-size:17.60070038px;font-family:F2;-inkscape-font-specification:F2;writing-mode:lr-tb;fill:#000000;fill-opacity:1;fill-rule:nonzero;stroke:none"
         transform="translate(241.28,473.60001)"><tspan
           id="tspan62"
           y="0"
           x="0 9.6803846 19.469055 24.470818 34.259487 266.94073 276.62112 286.40979 291.41156 301.09195">11:4011:45</tspan></text>
</g><g
       id="g66"><text
         id="text70"
         style="font-variant:normal;font-weight:normal;font-size:17.60070038px;font-family:F2;-inkscape-font-specification:F2;writing-mode:lr-tb;fill:#000000;fill-opacity:1;fill-rule:nonzero;stroke:none"
         transform="translate(241.28,504.64001)"><tspan
           id="tspan68"
           y="0"
           x="0 9.6803846 19.469055 24.470818 34.259487 266.94073 276.62112 286.40979 291.41156 301.09195">12:3012:35</tspan></text>
</g><g
       id="g72"><text
         id="text76"
         style="font-variant:normal;font-weight:normal;font-size:17.60070038px;font-family:F2;-inkscape-font-specification:F2;writing-mode:lr-tb;fill:#000000;fill-opacity:1;fill-rule:nonzero;stroke:none"
         transform="translate(241.28,535.67999)"><tspan
           id="tspan74"
           y="0"
           x="0 9.6803846 19.469055 24.470818 34.259487 266.94073 276.62112 286.40979 291.41156 301.09195">14:1014:15</tspan></text>
</g><g
       id="g78"><text
         id="text82"
         style="font-variant:normal;font-weight:normal;font-size:17.60070038px;font-family:F2;-inkscape-font-specification:F2;writing-mode:lr-tb;fill:#000000;fill-opacity:1;fill-rule:nonzero;stroke:none"
         transform="translate(241.28,566.71997)"><tspan
           id="tspan80"
           y="0"
           x="0 9.6803846 19.469055 24.470818 34.259487 266.94073 276.62112 286.40979 291.41156 301.09195">15:1015:15</tspan></text>
</g><g
       id="g84"><text
         id="text88"
         style="font-variant:normal;font-weight:normal;font-size:17.60070038px;font-family:F1;-inkscape-font-specification:F1;writing-mode:lr-tb;fill:#000000;fill-opacity:1;fill-rule:nonzero;stroke:none"
         transform="translate(132.48,606.88)"><tspan
           id="tspan86"
           y="0"
           x="0 17.6007 35.201401 45.290863 62.891563 72.981026 83.070488 100.67119 110.76066 120.85012 138.45082 145.52376 163.12445">令和4年10月30日(日)</tspan></text>
</g><g
       id="g90"><text
         id="text94"
         style="font-variant:normal;font-weight:normal;font-size:17.60070038px;font-family:F1;-inkscape-font-specification:F1;writing-mode:lr-tb;fill:#000000;fill-opacity:1;fill-rule:nonzero;stroke:none"
         transform="translate(225.60001,677.91998)"><tspan
           id="tspan92"
           y="0"
           x="0 17.6007 35.201401 52.802101 57.730297 233.38528 250.98598 268.58667 286.18738 303.78809 310.86102 328.46173 346.06241 353.13535 358.06357">愛子駅 発仙台高専(広瀬) 着</tspan></text>
</g><g
       id="g96"><text
         id="text100"
         style="font-variant:normal;font-weight:normal;font-size:17.60070038px;font-family:F2;-inkscape-font-specification:F2;writing-mode:lr-tb;fill:#000000;fill-opacity:1;fill-rule:nonzero;stroke:none"
         transform="translate(246.24,708.96002)"><tspan
           id="tspan98"
           y="0"
           x="0 9.6803846 14.784588 24.464973 266.8266 276.6153 281.61703 291.29742">9:109:15</tspan></text>
</g><g
       id="g102"><text
         id="text106"
         style="font-variant:normal;font-weight:normal;font-size:17.60070038px;font-family:F2;-inkscape-font-specification:F2;writing-mode:lr-tb;fill:#000000;fill-opacity:1;fill-rule:nonzero;stroke:none"
         transform="translate(246.24,740)"><tspan
           id="tspan104"
           y="0"
           x="0 9.6803846 14.784588 24.464973 266.8266 276.6153 281.61703 291.29742">9:409:45</tspan></text>
</g><g
       id="g108"><text
         id="text112"
         style="font-variant:normal;font-weight:normal;font-size:17.60070038px;font-family:F2;-inkscape-font-specification:F2;writing-mode:lr-tb;fill:#000000;fill-opacity:1;fill-rule:nonzero;stroke:none"
         transform="translate(241.28,771.03998)"><tspan
           id="tspan110"
           y="0"
           x="0 9.6803846 19.469055 24.470818 34.259487 266.94073 276.62112 286.40979 291.41156 301.09195">10:1010:15</tspan></text>
</g><g
       id="g114"><text
         id="text118"
         style="font-variant:normal;font-weight:normal;font-size:17.60070038px;font-family:F2;-inkscape-font-specification:F2;writing-mode:lr-tb;fill:#000000;fill-opacity:1;fill-rule:nonzero;stroke:none"
         transform="translate(241.28,802.08002)"><tspan
           id="tspan116"
           y="0"
           x="0 9.6803846 19.469055 24.470818 34.259487 266.94073 276.62112 286.40979 291.41156 301.09195">10:4010:45</tspan></text>
</g><g
       id="g120"><text
         id="text124"
         style="font-variant:normal;font-weight:normal;font-size:17.60070038px;font-family:F2;-inkscape-font-specification:F2;writing-mode:lr-tb;fill:#000000;fill-opacity:1;fill-rule:nonzero;stroke:none"
         transform="translate(241.28,833.12)"><tspan
           id="tspan122"
           y="0"
           x="0 9.6803846 19.469055 24.470818 34.259487 266.94073 276.62112 286.40979 291.41156 301.09195">11:2011:25</tspan></text>
</g><g
       id="g126"><text
         id="text130"
         style="font-variant:normal;font-weight:normal;font-size:17.60070038px;font-family:F1;-inkscape-font-specification:F1;writing-mode:lr-tb;fill:#000000;fill-opacity:1;fill-rule:nonzero;stroke:none"
         transform="translate(192.16,895.20001)"><tspan
           id="tspan128"
           y="0"
           x="0 17.6007 35.201401 52.802101 70.402802 77.475739 95.076439 112.67714 119.75008 124.67827 300.33325 317.93396 335.53467 353.13535 358.06357">仙台高専(広瀬) 発愛子駅 着</tspan></text>
</g><g
       id="g132"><text
         id="text136"
         style="font-variant:normal;font-weight:normal;font-size:17.60070038px;font-family:F2;-inkscape-font-specification:F2;writing-mode:lr-tb;fill:#000000;fill-opacity:1;fill-rule:nonzero;stroke:none"
         transform="translate(241.28,926.23999)"><tspan
           id="tspan134"
           y="0"
           x="0 9.6803846 19.469055 24.470818 34.259487 266.94073 276.62112 286.40979 291.41156 301.09195">11:4011:45</tspan></text>
</g><g
       id="g138"><text
         id="text142"
         style="font-variant:normal;font-weight:normal;font-size:17.60070038px;font-family:F2;-inkscape-font-specification:F2;writing-mode:lr-tb;fill:#000000;fill-opacity:1;fill-rule:nonzero;stroke:none"
         transform="translate(241.28,957.28003)"><tspan
           id="tspan140"
           y="0"
           x="0 9.6803846 19.469055 24.470818 34.259487 266.94073 276.62112 286.40979 291.41156 301.09195">12:3012:35</tspan></text>
</g><g
       id="g144"><text
         id="text148"
         style="font-variant:normal;font-weight:normal;font-size:17.60070038px;font-family:F2;-inkscape-font-specification:F2;writing-mode:lr-tb;fill:#000000;fill-opacity:1;fill-rule:nonzero;stroke:none"
         transform="translate(241.28,988.32001)"><tspan
           id="tspan146"
           y="0"
           x="0 9.6803846 19.469055 24.470818 34.259487 266.94073 276.62112 286.40979 291.41156 301.09195">14:1014:15</tspan></text>
</g><g
       id="g150"><text
         id="text154"
         style="font-variant:normal;font-weight:normal;font-size:17.60070038px;font-family:F2;-inkscape-font-specification:F2;writing-mode:lr-tb;fill:#000000;fill-opacity:1;fill-rule:nonzero;stroke:none"
         transform="translate(240,193.60001)"><tspan
           id="tspan152"
           y="0"
           x="0 6.6882658 16.476936 23.165203 40.765903 58.366604 75.9673 80.8955 98.496201 103.51515 110.20341 119.99209 137.59279 144.28105 149.20924 166.80995 171.8289 189.4296 207.0303 224.631 242.23169 248.91997 266.52066 284.12137 290.80963 295.82858">(1)愛子駅 → (5分) → 仙台高専(広瀬) 着</tspan></text>
</g><g
       id="g156"><text
         id="text160"
         style="font-variant:normal;font-weight:normal;font-size:17.60070038px;font-family:F2;-inkscape-font-specification:F2;writing-mode:lr-tb;fill:#000000;fill-opacity:1;fill-rule:nonzero;stroke:none"
         transform="translate(226.24,410.88)"><tspan
           id="tspan158"
           y="0"
           x="0 6.6882658 16.476936 23.165203 28.093399 45.694099 63.2948 80.8955 98.496201 105.29413 122.89483 140.49553 147.18379 152.11198 169.71269 174.64088 192.24158 197.26053 203.94879 213.73747 231.33817 238.02643 243.04538 260.64609 265.57428 283.17499 300.7757 318.37637 323.30457">(2) 仙台高専(広瀬) 発 → (5分) → 愛子駅 着</tspan></text>
</g><g
       id="g162"><text
         id="text166"
         style="font-variant:normal;font-weight:normal;font-size:17.60070038px;font-family:F2;-inkscape-font-specification:F2;writing-mode:lr-tb;fill:#000000;fill-opacity:1;fill-rule:nonzero;stroke:none"
         transform="translate(240,646.23999)"><tspan
           id="tspan164"
           y="0"
           x="0 6.6882658 16.476936 23.165203 40.765903 58.366604 75.9673 80.8955 98.496201 103.51515 110.20341 119.99209 137.59279 144.28105 149.20924 166.80995 171.8289 189.4296 207.0303 224.631 242.23169 248.91997 266.52066 284.12137 290.80963 295.82858">(1)愛子駅 → (5分) → 仙台高専(広瀬) 着</tspan></text>
</g><g
       id="g168"><text
         id="text172"
         style="font-variant:normal;font-weight:normal;font-size:17.60070038px;font-family:F2;-inkscape-font-specification:F2;writing-mode:lr-tb;fill:#000000;fill-opacity:1;fill-rule:nonzero;stroke:none"
         transform="translate(226.24,863.52002)"><tspan
           id="tspan170"
           y="0"
           x="0 6.6882658 16.476936 23.165203 28.093399 45.694099 63.2948 80.8955 98.496201 105.29413 122.89483 140.49553 147.18379 152.11198 169.71269 174.64088 192.24158 197.26053 203.94879 213.73747 231.33817 238.02643 243.04538 260.64609 265.57428 283.17499 300.7757 318.37637 323.30457">(2) 仙台高専(広瀬) 発 → (5分) → 愛子駅 着</tspan></text>
</g><g
       id="g174"><path
         id="path176"
         style="fill:#000000;fill-opacity:1;fill-rule:evenodd;stroke:none"
         d="m 127.36,170.39999 h 4.31999 V 172 H 127.36 Z m 2.72,3.04001 h 1.59999 v 1.59999 H 130.08 Z" /></g><g
       id="g178"><path
         id="path180"
         style="fill:#000000;fill-opacity:1;fill-rule:evenodd;stroke:none"
         d="m 127.36,170.39999 h 1.28 v 4.64 h -1.28 z m 2.72,3.04001 h 1.59999 v 1.59999 H 130.08 Z m 0,28 h 1.59999 v 1.59999 H 130.08 Z m 0,3.04 h 1.59999 v 1.6 H 130.08 Z m 263.84001,0 h 1.59998 v 1.6 h -1.59998 z" /></g><g
       id="g182"><path
         id="path184"
         style="fill:#000000;fill-opacity:1;fill-rule:evenodd;stroke:none"
         d="m 131.67999,201.44 h 262.24002 v 1.59999 H 131.67999 Z m 0,3.04 h 262.24002 v 1.6 H 131.67999 Z" /></g><g
       id="g186"><path
         id="path188"
         style="fill:#000000;fill-opacity:1;fill-rule:evenodd;stroke:none"
         d="M 393.92001,201.44 H 398.56 v 1.59999 h -4.63999 z m 3.03998,3.04 H 398.56 v 1.6 h -1.60001 z m 263.84,-31.04 h 1.60003 v 1.59999 h -1.60003 z m 3.04004,-3.04001 H 665.44 v 4.64 h -1.59997 z M 660.79999,201.44 h 1.60003 v 1.59999 h -1.60003 z M 127.36,175.03999 h 1.28 V 201.44 h -1.28 z m 2.72,0 h 1.59999 V 201.44 H 130.08 Z" /></g><g
       id="g190"><path
         id="path192"
         style="fill:#000000;fill-opacity:1;fill-rule:evenodd;stroke:none"
         d="m 127.36,201.44 h 1.28 v 4.64 h -1.28 z m 2.72,3.04 h 1.59999 v 1.6 H 130.08 Z m 0,28 h 1.59999 v 1.6 H 130.08 Z m 0,3.04 h 1.59999 v 1.59999 H 130.08 Z m 263.84001,0 h 1.59998 v 1.59999 h -1.59998 z m 0,-3.04 h 1.59998 v 1.6 h -1.59998 z m 0,-28 h 1.59998 v 1.6 h -1.59998 z m 3.03998,0 H 398.56 v 1.6 h -1.60001 z m 0,28 H 398.56 v 1.6 h -1.60001 z" /></g><g
       id="g194"><path
         id="path196"
         style="fill:#000000;fill-opacity:1;fill-rule:evenodd;stroke:none"
         d="m 131.67999,232.48 h 263.84 v 1.6 h -263.84 z" /></g><g
       id="g198"><path
         id="path200"
         style="fill:#000000;fill-opacity:1;fill-rule:evenodd;stroke:none"
         d="m 131.67999,235.52 h 262.24002 v 1.59999 H 131.67999 Z m 265.28,-3.04 H 398.56 v 1.6 h -1.60001 z m 0,3.04 H 398.56 v 1.59999 h -1.60001 z m 263.84,-60.48001 h 1.60003 V 201.44 h -1.60003 z m 3.04004,0 H 665.44 V 201.44 h -1.59997 z M 660.79999,204.48 h 1.60003 v 1.6 h -1.60003 z" /></g><g
       id="g202"><path
         id="path204"
         style="fill:#000000;fill-opacity:1;fill-rule:evenodd;stroke:none"
         d="M 663.84003,201.44 H 665.44 v 4.64 h -1.59997 z m -3.04004,31.04 h 1.60003 v 1.6 h -1.60003 z M 127.36,206.08 h 1.28 v 26.4 h -1.28 z m 2.72,0 h 1.59999 v 26.4 H 130.08 Z" /></g><g
       id="g206"><path
         id="path208"
         style="fill:#000000;fill-opacity:1;fill-rule:evenodd;stroke:none"
         d="m 127.36,232.48 h 1.28 v 4.63999 h -1.28 z m 2.72,3.04 h 1.59999 v 1.59999 H 130.08 Z m 0,27.99999 h 1.59999 V 265.12 H 130.08 Z m 0,3.04001 h 1.59999 v 1.6 H 130.08 Z m 263.84001,0 h 1.59998 v 1.6 h -1.59998 z m 0,-3.04001 h 1.59998 V 265.12 h -1.59998 z m 0,-57.43999 h 1.59998 v 26.4 h -1.59998 z m 3.03998,0 H 398.56 v 26.4 h -1.60001 z m -3.03998,29.44 h 1.59998 v 1.59999 h -1.59998 z m 3.03998,0 H 398.56 v 1.59999 h -1.60001 z m 0,27.99999 H 398.56 V 265.12 h -1.60001 z" /></g><g
       id="g210"><path
         id="path212"
         style="fill:#000000;fill-opacity:1;fill-rule:evenodd;stroke:none"
         d="m 131.67999,263.51999 h 263.84 V 265.12 h -263.84 z" /></g><g
       id="g214"><path
         id="path216"
         style="fill:#000000;fill-opacity:1;fill-rule:evenodd;stroke:none"
         d="m 131.67999,266.56 h 262.24002 v 1.6 H 131.67999 Z m 265.28,-3.04001 H 398.56 V 265.12 h -1.60001 z m 0,3.04001 H 398.56 v 1.6 h -1.60001 z m 263.84,-60.48 h 1.60003 v 26.4 h -1.60003 z m 3.04004,0 H 665.44 v 26.4 h -1.59997 z m -3.04004,29.44 h 1.60003 v 1.59999 h -1.60003 z" /></g><g
       id="g218"><path
         id="path220"
         style="fill:#000000;fill-opacity:1;fill-rule:evenodd;stroke:none"
         d="M 663.84003,232.48 H 665.44 v 4.63999 h -1.59997 z m -3.04004,31.03999 h 1.60003 V 265.12 h -1.60003 z m -533.43999,-26.4 h 1.28 v 26.4 h -1.28 z m 2.72,0 h 1.59999 v 26.4 H 130.08 Z" /></g><g
       id="g222"><path
         id="path224"
         style="fill:#000000;fill-opacity:1;fill-rule:evenodd;stroke:none"
         d="m 127.36,263.51999 h 1.28 V 268.16 h -1.28 z m 2.72,3.04001 h 1.59999 v 1.6 H 130.08 Z m 0,28 h 1.59999 v 1.6 H 130.08 Z m 0,3.04001 h 1.59999 v 1.6 H 130.08 Z m 263.84001,0 h 1.59998 v 1.6 h -1.59998 z m 0,-3.04001 h 1.59998 v 1.6 h -1.59998 z m 0,-57.44001 h 1.59998 v 26.4 h -1.59998 z m 3.03998,0 H 398.56 v 26.4 h -1.60001 z M 393.92001,266.56 h 1.59998 v 1.6 h -1.59998 z m 3.03998,0 H 398.56 v 1.6 h -1.60001 z m 0,28 H 398.56 v 1.6 h -1.60001 z" /></g><g
       id="g226"><path
         id="path228"
         style="fill:#000000;fill-opacity:1;fill-rule:evenodd;stroke:none"
         d="m 131.67999,294.56 h 263.84 v 1.6 h -263.84 z" /></g><g
       id="g230"><path
         id="path232"
         style="fill:#000000;fill-opacity:1;fill-rule:evenodd;stroke:none"
         d="m 131.67999,297.60001 h 262.24002 v 1.6 H 131.67999 Z m 265.28,-3.04001 H 398.56 v 1.6 h -1.60001 z m 0,3.04001 H 398.56 v 1.6 h -1.60001 z m 263.84,-60.48002 h 1.60003 v 26.4 h -1.60003 z m 3.04004,0 H 665.44 v 26.4 h -1.59997 z M 660.79999,266.56 h 1.60003 v 1.6 h -1.60003 z" /></g><g
       id="g234"><path
         id="path236"
         style="fill:#000000;fill-opacity:1;fill-rule:evenodd;stroke:none"
         d="M 663.84003,263.51999 H 665.44 V 268.16 h -1.59997 z M 660.79999,294.56 h 1.60003 v 1.6 h -1.60003 z M 127.36,268.16 h 1.28 v 26.4 h -1.28 z m 2.72,0 h 1.59999 v 26.4 H 130.08 Z" /></g><g
       id="g238"><path
         id="path240"
         style="fill:#000000;fill-opacity:1;fill-rule:evenodd;stroke:none"
         d="m 127.36,294.56 h 1.28 v 4.64001 h -1.28 z m 2.72,3.04001 h 1.59999 v 1.6 H 130.08 Z m 0,28 h 1.59999 v 1.6 H 130.08 Z m 0,3.04 h 1.59999 v 1.59998 H 130.08 Z m 263.84001,0 h 1.59998 v 1.59998 h -1.59998 z m 0,-3.04 h 1.59998 v 1.6 h -1.59998 z m 0,-57.44001 h 1.59998 v 26.4 h -1.59998 z m 3.03998,0 H 398.56 v 26.4 h -1.60001 z m -3.03998,29.44001 h 1.59998 v 1.6 h -1.59998 z m 3.03998,0 H 398.56 v 1.6 h -1.60001 z m 0,28 H 398.56 v 1.6 h -1.60001 z" /></g><g
       id="g242"><path
         id="path244"
         style="fill:#000000;fill-opacity:1;fill-rule:evenodd;stroke:none"
         d="m 131.67999,325.60001 h 263.84 v 1.6 h -263.84 z" /></g><g
       id="g246"><path
         id="path248"
         style="fill:#000000;fill-opacity:1;fill-rule:evenodd;stroke:none"
         d="m 131.67999,328.64001 h 262.24002 v 1.59998 H 131.67999 Z m 265.28,-3.04 H 398.56 v 1.6 h -1.60001 z m 0,3.04 H 398.56 v 1.59998 h -1.60001 z m 263.84,-60.48001 h 1.60003 v 26.4 h -1.60003 z m 3.04004,0 H 665.44 v 26.4 h -1.59997 z m -3.04004,29.44001 h 1.60003 v 1.6 h -1.60003 z" /></g><g
       id="g250"><path
         id="path252"
         style="fill:#000000;fill-opacity:1;fill-rule:evenodd;stroke:none"
         d="M 663.84003,294.56 H 665.44 v 4.64001 h -1.59997 z m -3.04004,31.04001 h 1.60003 v 1.6 h -1.60003 z m -533.43999,-26.4 h 1.28 v 26.4 h -1.28 z m 2.72,0 h 1.59999 v 26.4 H 130.08 Z" /></g><g
       id="g254"><path
         id="path256"
         style="fill:#000000;fill-opacity:1;fill-rule:evenodd;stroke:none"
         d="m 127.36,325.60001 h 1.28 v 4.63998 h -1.28 z m 2.72,3.04 h 1.59999 v 1.59998 H 130.08 Z m 0,28 h 1.59999 v 1.59998 H 130.08 Z m 0,3.03998 h 1.59999 V 361.28 H 130.08 Z m 263.84001,0 h 1.59998 V 361.28 h -1.59998 z m 0,-3.03998 h 1.59998 v 1.59998 h -1.59998 z m 0,-57.44 h 1.59998 v 26.4 h -1.59998 z m 3.03998,0 H 398.56 v 26.4 h -1.60001 z m -3.03998,29.44 h 1.59998 v 1.59998 h -1.59998 z m 3.03998,0 H 398.56 v 1.59998 h -1.60001 z m 0,28 H 398.56 v 1.59998 h -1.60001 z" /></g><g
       id="g258"><path
         id="path260"
         style="fill:#000000;fill-opacity:1;fill-rule:evenodd;stroke:none"
         d="m 131.67999,356.64001 h 263.84 v 1.59998 h -263.84 z" /></g><g
       id="g262"><path
         id="path264"
         style="fill:#000000;fill-opacity:1;fill-rule:evenodd;stroke:none"
         d="M 131.67999,359.67999 H 393.92001 V 361.28 H 131.67999 Z m 265.28,-3.03998 H 398.56 v 1.59998 h -1.60001 z m 0,3.03998 H 398.56 V 361.28 h -1.60001 z m 263.84,-60.47998 h 1.60003 v 26.4 h -1.60003 z m 3.04004,0 H 665.44 v 26.4 h -1.59997 z m -3.04004,29.44 h 1.60003 v 1.59998 h -1.60003 z" /></g><g
       id="g266"><path
         id="path268"
         style="fill:#000000;fill-opacity:1;fill-rule:evenodd;stroke:none"
         d="M 663.84003,325.60001 H 665.44 v 4.63998 h -1.59997 z m -3.04004,31.04 h 1.60003 v 1.59998 h -1.60003 z M 127.36,330.23999 h 1.28 v 26.40002 h -1.28 z m 2.72,0 h 1.59999 v 26.40002 H 130.08 Z" /></g><g
       id="g270"><path
         id="path272"
         style="fill:#000000;fill-opacity:1;fill-rule:evenodd;stroke:none"
         d="m 127.36,356.64001 h 1.28 V 361.28 h -1.28 z m 2.72,3.03998 h 1.59999 V 361.28 H 130.08 Z m 0,28 h 1.59999 V 389.28 H 130.08 Z m 0,3.04001 h 1.59999 v 1.60001 H 130.08 Z m 263.84001,-3.04001 h 1.59998 V 389.28 h -1.59998 z m 0,-57.44 h 1.59998 v 26.40002 h -1.59998 z m 3.03998,0 H 398.56 v 26.40002 h -1.60001 z m -3.03998,29.44 h 1.59998 V 361.28 h -1.59998 z m 3.03998,0 H 398.56 V 361.28 h -1.60001 z" /></g><g
       id="g274"><path
         id="path276"
         style="fill:#000000;fill-opacity:1;fill-rule:evenodd;stroke:none"
         d="M 131.67999,387.67999 H 393.92001 V 389.28 H 131.67999 Z m 0,3.04001 h 262.24002 v 1.60001 H 131.67999 Z m 265.28,-3.04001 H 398.56 V 389.28 h -1.60001 z" /></g><g
       id="g278"><path
         id="path280"
         style="fill:#000000;fill-opacity:1;fill-rule:evenodd;stroke:none"
         d="M 393.92001,390.72 H 398.56 v 1.60001 h -4.63999 z m 266.87998,-60.48001 h 1.60003 v 26.40002 h -1.60003 z m 3.04004,0 H 665.44 v 26.40002 h -1.59997 z m -3.04004,29.44 h 1.60003 V 361.28 h -1.60003 z" /></g><g
       id="g282"><path
         id="path284"
         style="fill:#000000;fill-opacity:1;fill-rule:evenodd;stroke:none"
         d="M 663.84003,356.64001 H 665.44 V 361.28 h -1.59997 z m -3.04004,31.03998 h 1.60003 V 389.28 h -1.60003 z M 127.36,361.28 h 1.28 v 26.39999 h -1.28 z m 2.72,0 h 1.59999 v 26.39999 H 130.08 Z" /></g><g
       id="g286"><path
         id="path288"
         style="fill:#000000;fill-opacity:1;fill-rule:evenodd;stroke:none"
         d="m 127.36,387.67999 h 1.28 v 4.64002 h -1.28 z m 2.72,3.04001 h 1.59999 v 1.60001 H 130.08 Z m 0,28 h 1.59999 v 1.60001 H 130.08 Z m 0,3.04001 h 1.59999 v 1.59998 H 130.08 Z m 263.84001,0 h 1.59998 v 1.59998 h -1.59998 z m 3.03998,-34.08002 H 398.56 V 389.28 h -1.60001 z m -3.03998,0 h 1.59998 V 389.28 h -1.59998 z" /></g><g
       id="g290"><path
         id="path292"
         style="fill:#000000;fill-opacity:1;fill-rule:evenodd;stroke:none"
         d="m 131.67999,418.72 h 262.24002 v 1.60001 H 131.67999 Z m 0,3.04001 h 262.24002 v 1.59998 H 131.67999 Z" /></g><g
       id="g294"><path
         id="path296"
         style="fill:#000000;fill-opacity:1;fill-rule:evenodd;stroke:none"
         d="M 393.92001,418.72 H 398.56 v 1.60001 h -4.63999 z m 3.03998,3.04001 H 398.56 v 1.59998 h -1.60001 z m 263.84,-60.48001 h 1.60003 v 26.39999 h -1.60003 z m 3.04004,0 H 665.44 v 26.39999 h -1.59997 z m -3.04004,29.44 h 1.60003 v 1.60001 h -1.60003 z" /></g><g
       id="g298"><path
         id="path300"
         style="fill:#000000;fill-opacity:1;fill-rule:evenodd;stroke:none"
         d="M 663.84003,387.67999 H 665.44 v 4.64002 h -1.59997 z M 660.79999,418.72 h 1.60003 v 1.60001 h -1.60003 z M 127.36,392.32001 h 1.28 V 418.72 h -1.28 z m 2.72,0 h 1.59999 V 418.72 H 130.08 Z" /></g><g
       id="g302"><path
         id="path304"
         style="fill:#000000;fill-opacity:1;fill-rule:evenodd;stroke:none"
         d="m 127.36,418.72 h 1.28 v 4.63999 h -1.28 z m 2.72,3.04001 h 1.59999 v 1.59998 H 130.08 Z m 0,28 h 1.59999 v 1.59998 H 130.08 Z m 0,3.03998 h 1.59999 v 1.6 H 130.08 Z m 263.84001,0 h 1.59998 v 1.6 h -1.59998 z m 0,-3.03998 h 1.59998 v 1.59998 h -1.59998 z m 0,-88.48001 h 1.59998 v 26.39999 h -1.59998 z m 3.03998,0 H 398.56 v 26.39999 h -1.60001 z m -3.03998,60.48001 h 1.59998 v 1.59998 h -1.59998 z m 3.03998,0 H 398.56 v 1.59998 h -1.60001 z m 0,28 H 398.56 v 1.59998 h -1.60001 z" /></g><g
       id="g306"><path
         id="path308"
         style="fill:#000000;fill-opacity:1;fill-rule:evenodd;stroke:none"
         d="m 131.67999,449.76001 h 263.84 v 1.59998 h -263.84 z" /></g><g
       id="g310"><path
         id="path312"
         style="fill:#000000;fill-opacity:1;fill-rule:evenodd;stroke:none"
         d="m 131.67999,452.79999 h 262.24002 v 1.6 H 131.67999 Z m 265.28,-3.03998 H 398.56 v 1.59998 h -1.60001 z m 0,3.03998 H 398.56 v 1.6 h -1.60001 z m 263.84,-60.47998 h 1.60003 V 418.72 h -1.60003 z m 3.04004,0 H 665.44 V 418.72 h -1.59997 z m -3.04004,29.44 h 1.60003 v 1.59998 h -1.60003 z" /></g><g
       id="g314"><path
         id="path316"
         style="fill:#000000;fill-opacity:1;fill-rule:evenodd;stroke:none"
         d="M 663.84003,418.72 H 665.44 v 4.63999 h -1.59997 z m -3.04004,31.04001 h 1.60003 v 1.59998 h -1.60003 z M 127.36,423.35999 h 1.28 v 26.40002 h -1.28 z m 2.72,0 h 1.59999 v 26.40002 H 130.08 Z" /></g><g
       id="g318"><path
         id="path320"
         style="fill:#000000;fill-opacity:1;fill-rule:evenodd;stroke:none"
         d="m 127.36,449.76001 h 1.28 v 4.63998 h -1.28 z m 2.72,3.03998 h 1.59999 v 1.6 H 130.08 Z m 0,28 h 1.59999 v 1.6 H 130.08 Z m 0,3.04001 h 1.59999 v 1.6 H 130.08 Z m 263.84001,0 h 1.59998 v 1.6 h -1.59998 z m 0,-3.04001 h 1.59998 v 1.6 h -1.59998 z m 0,-57.44 h 1.59998 v 26.40002 h -1.59998 z m 3.03998,0 H 398.56 v 26.40002 h -1.60001 z m -3.03998,29.44 h 1.59998 v 1.6 h -1.59998 z m 3.03998,0 H 398.56 v 1.6 h -1.60001 z m 0,28 H 398.56 v 1.6 h -1.60001 z" /></g><g
       id="g322"><path
         id="path324"
         style="fill:#000000;fill-opacity:1;fill-rule:evenodd;stroke:none"
         d="m 131.67999,480.79999 h 263.84 v 1.6 h -263.84 z" /></g><g
       id="g326"><path
         id="path328"
         style="fill:#000000;fill-opacity:1;fill-rule:evenodd;stroke:none"
         d="m 131.67999,483.84 h 262.24002 v 1.6 H 131.67999 Z m 265.28,-3.04001 H 398.56 v 1.6 h -1.60001 z m 0,3.04001 H 398.56 v 1.6 h -1.60001 z m 263.84,-60.48001 h 1.60003 v 26.40002 h -1.60003 z m 3.04004,0 H 665.44 v 26.40002 h -1.59997 z m -3.04004,29.44 h 1.60003 v 1.6 h -1.60003 z" /></g><g
       id="g330"><path
         id="path332"
         style="fill:#000000;fill-opacity:1;fill-rule:evenodd;stroke:none"
         d="M 663.84003,449.76001 H 665.44 v 4.63998 h -1.59997 z m -3.04004,31.03998 h 1.60003 v 1.6 h -1.60003 z m -533.43999,-26.4 h 1.28 v 26.4 h -1.28 z m 2.72,0 h 1.59999 v 26.4 H 130.08 Z" /></g><g
       id="g334"><path
         id="path336"
         style="fill:#000000;fill-opacity:1;fill-rule:evenodd;stroke:none"
         d="m 127.36,480.79999 h 1.28 V 485.44 h -1.28 z m 2.72,3.04001 h 1.59999 v 1.6 H 130.08 Z m 0,28 h 1.59999 v 1.6 H 130.08 Z m 0,3.04 h 1.59999 v 1.59998 H 130.08 Z m 263.84001,0 h 1.59998 v 1.59998 h -1.59998 z m 0,-3.04 h 1.59998 v 1.6 h -1.59998 z m 0,-57.44001 h 1.59998 v 26.4 h -1.59998 z m 3.03998,0 H 398.56 v 26.4 h -1.60001 z M 393.92001,483.84 h 1.59998 v 1.6 h -1.59998 z m 3.03998,0 H 398.56 v 1.6 h -1.60001 z m 0,28 H 398.56 v 1.6 h -1.60001 z" /></g><g
       id="g338"><path
         id="path340"
         style="fill:#000000;fill-opacity:1;fill-rule:evenodd;stroke:none"
         d="m 131.67999,511.84 h 263.84 v 1.6 h -263.84 z" /></g><g
       id="g342"><path
         id="path344"
         style="fill:#000000;fill-opacity:1;fill-rule:evenodd;stroke:none"
         d="m 131.67999,514.88 h 262.24002 v 1.59998 H 131.67999 Z m 265.28,-3.04 H 398.56 v 1.6 h -1.60001 z m 0,3.04 H 398.56 v 1.59998 h -1.60001 z m 263.84,-60.48001 h 1.60003 v 26.4 h -1.60003 z m 3.04004,0 H 665.44 v 26.4 h -1.59997 z M 660.79999,483.84 h 1.60003 v 1.6 h -1.60003 z" /></g><g
       id="g346"><path
         id="path348"
         style="fill:#000000;fill-opacity:1;fill-rule:evenodd;stroke:none"
         d="M 663.84003,480.79999 H 665.44 V 485.44 h -1.59997 z M 660.79999,511.84 h 1.60003 v 1.6 h -1.60003 z M 127.36,485.44 h 1.28 v 26.4 h -1.28 z m 2.72,0 h 1.59999 v 26.4 H 130.08 Z" /></g><g
       id="g350"><path
         id="path352"
         style="fill:#000000;fill-opacity:1;fill-rule:evenodd;stroke:none"
         d="m 127.36,511.84 h 1.28 v 4.63998 h -1.28 z m 2.72,3.04 h 1.59999 v 1.59998 H 130.08 Z m 0,28 h 1.59999 v 1.59998 H 130.08 Z m 0,3.03998 h 1.59999 v 1.60004 H 130.08 Z m 263.84001,0 h 1.59998 v 1.60004 h -1.59998 z m 0,-3.03998 h 1.59998 v 1.59998 h -1.59998 z m 0,-57.44 h 1.59998 v 26.4 h -1.59998 z m 3.03998,0 H 398.56 v 26.4 h -1.60001 z m -3.03998,29.44 h 1.59998 v 1.59998 h -1.59998 z m 3.03998,0 H 398.56 v 1.59998 h -1.60001 z m 0,28 H 398.56 v 1.59998 h -1.60001 z" /></g><g
       id="g354"><path
         id="path356"
         style="fill:#000000;fill-opacity:1;fill-rule:evenodd;stroke:none"
         d="m 131.67999,542.88 h 263.84 v 1.59998 h -263.84 z" /></g><g
       id="g358"><path
         id="path360"
         style="fill:#000000;fill-opacity:1;fill-rule:evenodd;stroke:none"
         d="m 131.67999,545.91998 h 262.24002 v 1.60004 H 131.67999 Z m 265.28,-3.03998 H 398.56 v 1.59998 h -1.60001 z m 0,3.03998 H 398.56 v 1.60004 h -1.60001 z m 263.84,-60.47998 h 1.60003 v 26.4 h -1.60003 z m 3.04004,0 H 665.44 v 26.4 h -1.59997 z m -3.04004,29.44 h 1.60003 v 1.59998 h -1.60003 z" /></g><g
       id="g362"><path
         id="path364"
         style="fill:#000000;fill-opacity:1;fill-rule:evenodd;stroke:none"
         d="M 663.84003,511.84 H 665.44 v 4.63998 h -1.59997 z m -3.04004,31.04 h 1.60003 v 1.59998 h -1.60003 z M 127.36,516.47998 h 1.28 V 542.88 h -1.28 z m 2.72,0 h 1.59999 V 542.88 H 130.08 Z" /></g><g
       id="g366"><path
         id="path368"
         style="fill:#000000;fill-opacity:1;fill-rule:evenodd;stroke:none"
         d="m 127.36,542.88 h 1.28 v 4.64002 h -1.28 z m 2.72,3.03998 h 1.59999 v 1.60004 H 130.08 Z m 0,28 h 1.59999 v 1.60004 H 130.08 Z m -2.72,3.04004 h 4.31999 V 578.56 H 127.36 Z m 266.56001,-3.04004 h 1.59998 v 1.60004 h -1.59998 z m 0,-57.44 h 1.59998 V 542.88 h -1.59998 z m 3.03998,0 H 398.56 V 542.88 h -1.60001 z m -3.03998,29.44 h 1.59998 v 1.60004 h -1.59998 z m 3.03998,0 H 398.56 v 1.60004 h -1.60001 z" /></g><g
       id="g370"><path
         id="path372"
         style="fill:#000000;fill-opacity:1;fill-rule:evenodd;stroke:none"
         d="m 131.67999,573.91998 h 262.24002 v 1.60004 H 131.67999 Z m 0,3.04004 H 393.92001 V 578.56 H 131.67999 Z m 265.28,-3.04004 H 398.56 v 1.60004 h -1.60001 z" /></g><g
       id="g374"><path
         id="path376"
         style="fill:#000000;fill-opacity:1;fill-rule:evenodd;stroke:none"
         d="M 393.92001,576.96002 H 398.56 V 578.56 h -4.63999 z m 266.87998,-60.48004 h 1.60003 V 542.88 h -1.60003 z m 3.04004,0 H 665.44 V 542.88 h -1.59997 z m -3.04004,29.44 h 1.60003 v 1.60004 h -1.60003 z" /></g><g
       id="g378"><path
         id="path380"
         style="fill:#000000;fill-opacity:1;fill-rule:evenodd;stroke:none"
         d="M 663.84003,542.88 H 665.44 v 4.64002 h -1.59997 z M 130.08,573.91998 h 1.59999 v 1.60004 H 130.08 Z m -2.72,0 h 1.28 V 578.56 h -1.28 z m 0,49.12 h 4.31999 v 1.60003 H 127.36 Z m 2.72,3.04004 h 1.59999 v 1.59997 H 130.08 Z M 663.84003,573.91998 H 665.44 V 578.56 h -1.59997 z m -3.04004,0 h 1.60003 v 1.60004 h -1.60003 z" /></g><g
       id="g382"><path
         id="path384"
         style="fill:#000000;fill-opacity:1;fill-rule:evenodd;stroke:none"
         d="m 127.36,547.52002 h 1.28 v 26.39996 h -1.28 z m 2.72,0 h 1.59999 v 26.39996 H 130.08 Z m -2.72,75.51996 h 1.28 v 4.64001 h -1.28 z m 2.72,3.04004 h 1.59999 v 1.59997 H 130.08 Z m 0,28 h 1.59999 v 1.59997 H 130.08 Z m 0,3.03998 h 1.59999 v 1.59997 H 130.08 Z m 263.84001,0 h 1.59998 v 1.59997 h -1.59998 z m 3.03998,-83.20002 H 398.56 v 1.60004 h -1.60001 z m -3.03998,0 h 1.59998 v 1.60004 h -1.59998 z" /></g><g
       id="g386"><path
         id="path388"
         style="fill:#000000;fill-opacity:1;fill-rule:evenodd;stroke:none"
         d="m 131.67999,654.08002 h 262.24002 v 1.59997 H 131.67999 Z m 0,3.03998 h 262.24002 v 1.59997 H 131.67999 Z" /></g><g
       id="g390"><path
         id="path392"
         style="fill:#000000;fill-opacity:1;fill-rule:evenodd;stroke:none"
         d="M 393.92001,654.08002 H 398.56 v 1.59997 h -4.63999 z m 3.03998,3.03998 H 398.56 v 1.59997 h -1.60001 z m 263.84,-109.59998 h 1.60003 v 26.39996 h -1.60003 z m 3.04004,0 H 665.44 v 26.39996 h -1.59997 z m -3.04004,78.56 h 1.60003 v 1.59997 h -1.60003 z m 3.04004,-3.04004 H 665.44 v 4.64001 h -1.59997 z m -3.04004,31.04004 h 1.60003 v 1.59997 h -1.60003 z M 127.36,627.67999 h 1.28 v 26.40003 h -1.28 z m 2.72,0 h 1.59999 v 26.40003 H 130.08 Z" /></g><g
       id="g394"><path
         id="path396"
         style="fill:#000000;fill-opacity:1;fill-rule:evenodd;stroke:none"
         d="m 127.36,654.08002 h 1.28 v 4.63995 h -1.28 z m 2.72,3.03998 h 1.59999 v 1.59997 H 130.08 Z m 0,28 h 1.59999 v 1.59997 H 130.08 Z m 0,3.03997 h 1.59999 v 1.60004 H 130.08 Z m 263.84001,0 h 1.59998 v 1.60004 h -1.59998 z m 0,-3.03997 h 1.59998 v 1.59997 h -1.59998 z m 0,-137.59998 h 1.59998 v 26.39996 h -1.59998 z m 3.03998,0 H 398.56 v 26.39996 h -1.60001 z M 393.92001,657.12 h 1.59998 v 1.59997 h -1.59998 z m 3.03998,0 H 398.56 v 1.59997 h -1.60001 z m 0,28 H 398.56 v 1.59997 h -1.60001 z" /></g><g
       id="g398"><path
         id="path400"
         style="fill:#000000;fill-opacity:1;fill-rule:evenodd;stroke:none"
         d="m 131.67999,685.12 h 263.84 v 1.59997 h -263.84 z" /></g><g
       id="g402"><path
         id="path404"
         style="fill:#000000;fill-opacity:1;fill-rule:evenodd;stroke:none"
         d="m 131.67999,688.15997 h 262.24002 v 1.60004 H 131.67999 Z m 265.28,-3.03997 H 398.56 v 1.59997 h -1.60001 z m 0,3.03997 H 398.56 v 1.60004 h -1.60001 z m 263.84,-60.47998 h 1.60003 v 26.40003 h -1.60003 z m 3.04004,0 H 665.44 v 26.40003 h -1.59997 z M 660.79999,657.12 h 1.60003 v 1.59997 h -1.60003 z" /></g><g
       id="g406"><path
         id="path408"
         style="fill:#000000;fill-opacity:1;fill-rule:evenodd;stroke:none"
         d="M 663.84003,654.08002 H 665.44 v 4.63995 h -1.59997 z M 660.79999,685.12 h 1.60003 v 1.59997 h -1.60003 z M 127.36,658.71997 h 1.28 V 685.12 h -1.28 z m 2.72,0 h 1.59999 V 685.12 H 130.08 Z" /></g><g
       id="g410"><path
         id="path412"
         style="fill:#000000;fill-opacity:1;fill-rule:evenodd;stroke:none"
         d="m 127.36,685.12 h 1.28 v 4.64001 h -1.28 z m 2.72,3.03997 h 1.59999 v 1.60004 H 130.08 Z m 0,28 h 1.59999 v 1.60004 H 130.08 Z m 0,3.04004 h 1.59999 v 1.59998 H 130.08 Z m 263.84001,0 h 1.59998 v 1.59998 h -1.59998 z m 0,-3.04004 h 1.59998 v 1.60004 h -1.59998 z m 0,-57.44 h 1.59998 V 685.12 h -1.59998 z m 3.03998,0 H 398.56 V 685.12 h -1.60001 z m -3.03998,29.44 h 1.59998 v 1.60004 h -1.59998 z m 3.03998,0 H 398.56 v 1.60004 h -1.60001 z m 0,28 H 398.56 v 1.60004 h -1.60001 z" /></g><g
       id="g414"><path
         id="path416"
         style="fill:#000000;fill-opacity:1;fill-rule:evenodd;stroke:none"
         d="m 131.67999,716.15997 h 263.84 v 1.60004 h -263.84 z" /></g><g
       id="g418"><path
         id="path420"
         style="fill:#000000;fill-opacity:1;fill-rule:evenodd;stroke:none"
         d="m 131.67999,719.20001 h 262.24002 v 1.59998 H 131.67999 Z m 265.28,-3.04004 H 398.56 v 1.60004 h -1.60001 z m 0,3.04004 H 398.56 v 1.59998 h -1.60001 z m 263.84,-60.48004 h 1.60003 V 685.12 h -1.60003 z m 3.04004,0 H 665.44 V 685.12 h -1.59997 z m -3.04004,29.44 h 1.60003 v 1.60004 h -1.60003 z" /></g><g
       id="g422"><path
         id="path424"
         style="fill:#000000;fill-opacity:1;fill-rule:evenodd;stroke:none"
         d="M 663.84003,685.12 H 665.44 v 4.64001 h -1.59997 z m -3.04004,31.03997 h 1.60003 v 1.60004 h -1.60003 z M 127.36,689.76001 h 1.28 v 26.39996 h -1.28 z m 2.72,0 h 1.59999 v 26.39996 H 130.08 Z" /></g><g
       id="g426"><path
         id="path428"
         style="fill:#000000;fill-opacity:1;fill-rule:evenodd;stroke:none"
         d="m 127.36,716.15997 h 1.28 v 4.64002 h -1.28 z m 2.72,3.04004 h 1.59999 v 1.59998 H 130.08 Z m 0,28 h 1.59999 v 1.59998 H 130.08 Z m 0,3.03998 h 1.59999 v 1.60004 H 130.08 Z m 263.84001,0 h 1.59998 v 1.60004 h -1.59998 z m 0,-3.03998 h 1.59998 v 1.59998 h -1.59998 z m 0,-57.44 h 1.59998 v 26.39996 h -1.59998 z m 3.03998,0 H 398.56 v 26.39996 h -1.60001 z m -3.03998,29.44 h 1.59998 v 1.59998 h -1.59998 z m 3.03998,0 H 398.56 v 1.59998 h -1.60001 z m 0,28 H 398.56 v 1.59998 h -1.60001 z" /></g><g
       id="g430"><path
         id="path432"
         style="fill:#000000;fill-opacity:1;fill-rule:evenodd;stroke:none"
         d="m 131.67999,747.20001 h 263.84 v 1.59998 h -263.84 z" /></g><g
       id="g434"><path
         id="path436"
         style="fill:#000000;fill-opacity:1;fill-rule:evenodd;stroke:none"
         d="m 131.67999,750.23999 h 262.24002 v 1.60004 H 131.67999 Z m 265.28,-3.03998 H 398.56 v 1.59998 h -1.60001 z m 0,3.03998 H 398.56 v 1.60004 h -1.60001 z m 263.84,-60.47998 h 1.60003 v 26.39996 h -1.60003 z m 3.04004,0 H 665.44 v 26.39996 h -1.59997 z m -3.04004,29.44 h 1.60003 v 1.59998 h -1.60003 z" /></g><g
       id="g438"><path
         id="path440"
         style="fill:#000000;fill-opacity:1;fill-rule:evenodd;stroke:none"
         d="M 663.84003,716.15997 H 665.44 v 4.64002 h -1.59997 z m -3.04004,31.04004 h 1.60003 v 1.59998 h -1.60003 z M 127.36,720.79999 h 1.28 v 26.40002 h -1.28 z m 2.72,0 h 1.59999 v 26.40002 H 130.08 Z" /></g><g
       id="g442"><path
         id="path444"
         style="fill:#000000;fill-opacity:1;fill-rule:evenodd;stroke:none"
         d="m 127.36,747.20001 h 1.28 v 4.64002 h -1.28 z m 2.72,3.03998 h 1.59999 v 1.60004 H 130.08 Z m 0,28 h 1.59999 v 1.60004 H 130.08 Z m 0,3.04004 h 1.59999 V 782.88 H 130.08 Z m 263.84001,0 h 1.59998 V 782.88 h -1.59998 z m 0,-3.04004 h 1.59998 v 1.60004 h -1.59998 z m 0,-57.44 h 1.59998 v 26.40002 h -1.59998 z m 3.03998,0 H 398.56 v 26.40002 h -1.60001 z m -3.03998,29.44 h 1.59998 v 1.60004 h -1.59998 z m 3.03998,0 H 398.56 v 1.60004 h -1.60001 z m 0,28 H 398.56 v 1.60004 h -1.60001 z" /></g><g
       id="g446"><path
         id="path448"
         style="fill:#000000;fill-opacity:1;fill-rule:evenodd;stroke:none"
         d="m 131.67999,778.23999 h 263.84 v 1.60004 h -263.84 z" /></g><g
       id="g450"><path
         id="path452"
         style="fill:#000000;fill-opacity:1;fill-rule:evenodd;stroke:none"
         d="M 131.67999,781.28003 H 393.92001 V 782.88 H 131.67999 Z m 265.28,-3.04004 H 398.56 v 1.60004 h -1.60001 z m 0,3.04004 H 398.56 V 782.88 h -1.60001 z m 263.84,-60.48004 h 1.60003 v 26.40002 h -1.60003 z m 3.04004,0 H 665.44 v 26.40002 h -1.59997 z m -3.04004,29.44 h 1.60003 v 1.60004 h -1.60003 z" /></g><g
       id="g454"><path
         id="path456"
         style="fill:#000000;fill-opacity:1;fill-rule:evenodd;stroke:none"
         d="M 663.84003,747.20001 H 665.44 v 4.64002 h -1.59997 z m -3.04004,31.03998 h 1.60003 v 1.60004 h -1.60003 z M 127.36,751.84003 h 1.28 v 26.39996 h -1.28 z m 2.72,0 h 1.59999 v 26.39996 H 130.08 Z" /></g><g
       id="g458"><path
         id="path460"
         style="fill:#000000;fill-opacity:1;fill-rule:evenodd;stroke:none"
         d="m 127.36,778.23999 h 1.28 V 782.88 h -1.28 z m 2.72,3.04004 h 1.59999 V 782.88 H 130.08 Z m 0,28 h 1.59999 V 810.88 H 130.08 Z m 0,3.03998 h 1.59999 v 1.59997 H 130.08 Z m 263.84001,0 h 1.59998 v 1.59997 h -1.59998 z m 0,-3.03998 h 1.59998 V 810.88 h -1.59998 z m 0,-57.44 h 1.59998 v 26.39996 h -1.59998 z m 3.03998,0 H 398.56 v 26.39996 h -1.60001 z m -3.03998,29.44 h 1.59998 V 782.88 h -1.59998 z m 3.03998,0 H 398.56 V 782.88 h -1.60001 z m 0,28 H 398.56 V 810.88 h -1.60001 z" /></g><g
       id="g462"><path
         id="path464"
         style="fill:#000000;fill-opacity:1;fill-rule:evenodd;stroke:none"
         d="m 131.67999,809.28003 h 263.84 V 810.88 h -263.84 z" /></g><g
       id="g466"><path
         id="path468"
         style="fill:#000000;fill-opacity:1;fill-rule:evenodd;stroke:none"
         d="m 131.67999,812.32001 h 262.24002 v 1.59997 H 131.67999 Z m 265.28,-3.03998 H 398.56 V 810.88 h -1.60001 z m 0,3.03998 H 398.56 v 1.59997 h -1.60001 z m 263.84,-60.47998 h 1.60003 v 26.39996 h -1.60003 z m 3.04004,0 H 665.44 v 26.39996 h -1.59997 z m -3.04004,29.44 h 1.60003 V 782.88 h -1.60003 z" /></g><g
       id="g470"><path
         id="path472"
         style="fill:#000000;fill-opacity:1;fill-rule:evenodd;stroke:none"
         d="M 663.84003,778.23999 H 665.44 V 782.88 h -1.59997 z m -3.04004,31.04004 h 1.60003 V 810.88 h -1.60003 z M 127.36,782.88 h 1.28 v 26.40003 h -1.28 z m 2.72,0 h 1.59999 v 26.40003 H 130.08 Z" /></g><g
       id="g474"><path
         id="path476"
         style="fill:#000000;fill-opacity:1;fill-rule:evenodd;stroke:none"
         d="m 127.36,809.28003 h 1.28 v 4.63995 h -1.28 z m 2.72,3.03998 h 1.59999 v 1.59997 H 130.08 Z m 0,28 h 1.59999 v 1.59997 H 130.08 Z m 0,3.03997 h 1.59999 v 1.60004 H 130.08 Z m 263.84001,-3.03997 h 1.59998 v 1.59997 h -1.59998 z m 0,-57.44001 h 1.59998 v 26.40003 h -1.59998 z m 3.03998,0 H 398.56 v 26.40003 h -1.60001 z m -3.03998,29.44001 h 1.59998 v 1.59997 h -1.59998 z m 3.03998,0 H 398.56 v 1.59997 h -1.60001 z" /></g><g
       id="g478"><path
         id="path480"
         style="fill:#000000;fill-opacity:1;fill-rule:evenodd;stroke:none"
         d="m 131.67999,840.32001 h 262.24002 v 1.59997 H 131.67999 Z m 0,3.03997 h 262.24002 v 1.60004 H 131.67999 Z m 265.28,-3.03997 H 398.56 v 1.59997 h -1.60001 z" /></g><g
       id="g482"><path
         id="path484"
         style="fill:#000000;fill-opacity:1;fill-rule:evenodd;stroke:none"
         d="M 393.92001,843.35998 H 398.56 v 1.60004 h -4.63999 z M 660.79999,782.88 h 1.60003 v 26.40003 h -1.60003 z m 3.04004,0 H 665.44 v 26.40003 h -1.59997 z m -3.04004,29.44001 h 1.60003 v 1.59997 h -1.60003 z" /></g><g
       id="g486"><path
         id="path488"
         style="fill:#000000;fill-opacity:1;fill-rule:evenodd;stroke:none"
         d="M 663.84003,809.28003 H 665.44 v 4.63995 h -1.59997 z m -3.04004,31.03998 h 1.60003 v 1.59997 h -1.60003 z M 127.36,813.91998 h 1.28 v 26.40003 h -1.28 z m 2.72,0 h 1.59999 v 26.40003 H 130.08 Z" /></g><g
       id="g490"><path
         id="path492"
         style="fill:#000000;fill-opacity:1;fill-rule:evenodd;stroke:none"
         d="m 127.36,840.32001 h 1.28 v 4.64001 h -1.28 z m 2.72,3.03997 h 1.59999 v 1.60004 H 130.08 Z m 0,28 h 1.59999 v 1.60004 H 130.08 Z m 0,3.04004 h 1.59999 V 876 H 130.08 Z m 263.84001,0 h 1.59998 V 876 h -1.59998 z m 3.03998,-34.08001 H 398.56 v 1.59997 h -1.60001 z m -3.03998,0 h 1.59998 v 1.59997 h -1.59998 z" /></g><g
       id="g494"><path
         id="path496"
         style="fill:#000000;fill-opacity:1;fill-rule:evenodd;stroke:none"
         d="m 131.67999,871.35998 h 262.24002 v 1.60004 H 131.67999 Z m 0,3.04004 H 393.92001 V 876 H 131.67999 Z" /></g><g
       id="g498"><path
         id="path500"
         style="fill:#000000;fill-opacity:1;fill-rule:evenodd;stroke:none"
         d="M 393.92001,871.35998 H 398.56 v 1.60004 h -4.63999 z m 3.03998,3.04004 H 398.56 V 876 h -1.60001 z m 263.84,-60.48004 h 1.60003 v 26.40003 h -1.60003 z m 3.04004,0 H 665.44 v 26.40003 h -1.59997 z m -3.04004,29.44 h 1.60003 v 1.60004 h -1.60003 z" /></g><g
       id="g502"><path
         id="path504"
         style="fill:#000000;fill-opacity:1;fill-rule:evenodd;stroke:none"
         d="M 663.84003,840.32001 H 665.44 v 4.64001 h -1.59997 z m -3.04004,31.03997 h 1.60003 v 1.60004 h -1.60003 z M 127.36,844.96002 h 1.28 v 26.39996 h -1.28 z m 2.72,0 h 1.59999 v 26.39996 H 130.08 Z" /></g><g
       id="g506"><path
         id="path508"
         style="fill:#000000;fill-opacity:1;fill-rule:evenodd;stroke:none"
         d="m 127.36,871.35998 h 1.28 V 876 h -1.28 z m 2.72,3.04004 h 1.59999 V 876 H 130.08 Z m 0,28 h 1.59999 V 904 H 130.08 Z m 0,3.03998 h 1.59999 v 1.59998 H 130.08 Z m 263.84001,0 h 1.59998 v 1.59998 h -1.59998 z m 0,-3.03998 h 1.59998 V 904 h -1.59998 z m 0,-88.48004 h 1.59998 v 26.40003 h -1.59998 z m 3.03998,0 H 398.56 v 26.40003 h -1.60001 z m -3.03998,60.48004 h 1.59998 V 876 h -1.59998 z m 3.03998,0 H 398.56 V 876 h -1.60001 z m 0,28 H 398.56 V 904 h -1.60001 z" /></g><g
       id="g510"><path
         id="path512"
         style="fill:#000000;fill-opacity:1;fill-rule:evenodd;stroke:none"
         d="m 131.67999,902.40002 h 263.84 V 904 h -263.84 z" /></g><g
       id="g514"><path
         id="path516"
         style="fill:#000000;fill-opacity:1;fill-rule:evenodd;stroke:none"
         d="m 131.67999,905.44 h 262.24002 v 1.59998 H 131.67999 Z m 265.28,-3.03998 H 398.56 V 904 h -1.60001 z m 0,3.03998 H 398.56 v 1.59998 h -1.60001 z m 263.84,-60.47998 h 1.60003 v 26.39996 h -1.60003 z m 3.04004,0 H 665.44 v 26.39996 h -1.59997 z m -3.04004,29.44 h 1.60003 V 876 h -1.60003 z" /></g><g
       id="g518"><path
         id="path520"
         style="fill:#000000;fill-opacity:1;fill-rule:evenodd;stroke:none"
         d="M 663.84003,871.35998 H 665.44 V 876 h -1.59997 z m -3.04004,31.04004 h 1.60003 V 904 h -1.60003 z M 127.36,876 h 1.28 v 26.40002 h -1.28 z m 2.72,0 h 1.59999 v 26.40002 H 130.08 Z" /></g><g
       id="g522"><path
         id="path524"
         style="fill:#000000;fill-opacity:1;fill-rule:evenodd;stroke:none"
         d="m 127.36,902.40002 h 1.28 v 4.63996 h -1.28 z m 2.72,3.03998 h 1.59999 v 1.59998 H 130.08 Z m 0,28 h 1.59999 v 1.59998 H 130.08 Z m 0,3.03998 h 1.59999 v 1.60004 H 130.08 Z m 263.84001,0 h 1.59998 v 1.60004 h -1.59998 z m 0,-3.03998 h 1.59998 v 1.59998 h -1.59998 z m 0,-57.44 h 1.59998 v 26.40002 h -1.59998 z m 3.03998,0 H 398.56 v 26.40002 h -1.60001 z m -3.03998,29.44 h 1.59998 v 1.59998 h -1.59998 z m 3.03998,0 H 398.56 v 1.59998 h -1.60001 z m 0,28 H 398.56 v 1.59998 h -1.60001 z" /></g><g
       id="g526"><path
         id="path528"
         style="fill:#000000;fill-opacity:1;fill-rule:evenodd;stroke:none"
         d="m 131.67999,933.44 h 263.84 v 1.59998 h -263.84 z" /></g><g
       id="g530"><path
         id="path532"
         style="fill:#000000;fill-opacity:1;fill-rule:evenodd;stroke:none"
         d="m 131.67999,936.47998 h 262.24002 v 1.60004 H 131.67999 Z m 265.28,-3.03998 H 398.56 v 1.59998 h -1.60001 z m 0,3.03998 H 398.56 v 1.60004 h -1.60001 z M 660.79999,876 h 1.60003 v 26.40002 h -1.60003 z m 3.04004,0 H 665.44 v 26.40002 h -1.59997 z m -3.04004,29.44 h 1.60003 v 1.59998 h -1.60003 z" /></g><g
       id="g534"><path
         id="path536"
         style="fill:#000000;fill-opacity:1;fill-rule:evenodd;stroke:none"
         d="M 663.84003,902.40002 H 665.44 v 4.63996 h -1.59997 z M 660.79999,933.44 h 1.60003 v 1.59998 h -1.60003 z M 127.36,907.03998 h 1.28 V 933.44 h -1.28 z m 2.72,0 h 1.59999 V 933.44 H 130.08 Z" /></g><g
       id="g538"><path
         id="path540"
         style="fill:#000000;fill-opacity:1;fill-rule:evenodd;stroke:none"
         d="m 127.36,933.44 h 1.28 v 4.64002 h -1.28 z m 2.72,3.03998 h 1.59999 v 1.60004 H 130.08 Z m 0,28 h 1.59999 v 1.60004 H 130.08 Z m 0,3.04004 h 1.59999 V 969.12 H 130.08 Z m 263.84001,0 h 1.59998 V 969.12 h -1.59998 z m 0,-3.04004 h 1.59998 v 1.60004 h -1.59998 z m 0,-57.44 h 1.59998 V 933.44 h -1.59998 z m 3.03998,0 H 398.56 V 933.44 h -1.60001 z m -3.03998,29.44 h 1.59998 v 1.60004 h -1.59998 z m 3.03998,0 H 398.56 v 1.60004 h -1.60001 z m 0,28 H 398.56 v 1.60004 h -1.60001 z" /></g><g
       id="g542"><path
         id="path544"
         style="fill:#000000;fill-opacity:1;fill-rule:evenodd;stroke:none"
         d="m 131.67999,964.47998 h 263.84 v 1.60004 h -263.84 z" /></g><g
       id="g546"><path
         id="path548"
         style="fill:#000000;fill-opacity:1;fill-rule:evenodd;stroke:none"
         d="M 131.67999,967.52002 H 393.92001 V 969.12 H 131.67999 Z m 265.28,-3.04004 H 398.56 v 1.60004 h -1.60001 z m 0,3.04004 H 398.56 V 969.12 h -1.60001 z m 263.84,-60.48004 h 1.60003 V 933.44 h -1.60003 z m 3.04004,0 H 665.44 V 933.44 h -1.59997 z m -3.04004,29.44 h 1.60003 v 1.60004 h -1.60003 z" /></g><g
       id="g550"><path
         id="path552"
         style="fill:#000000;fill-opacity:1;fill-rule:evenodd;stroke:none"
         d="M 663.84003,933.44 H 665.44 v 4.64002 h -1.59997 z m -3.04004,31.03998 h 1.60003 v 1.60004 h -1.60003 z M 127.36,938.08002 h 1.28 v 26.39996 h -1.28 z m 2.72,0 h 1.59999 v 26.39996 H 130.08 Z" /></g><g
       id="g554"><path
         id="path556"
         style="fill:#000000;fill-opacity:1;fill-rule:evenodd;stroke:none"
         d="m 127.36,964.47998 h 1.28 V 969.12 h -1.28 z m 2.72,3.04004 h 1.59999 V 969.12 H 130.08 Z m 0,28 h 1.59999 V 997.12 H 130.08 Z m -2.72,3.03998 h 4.31999 v 1.6 H 127.36 Z m 266.56001,-3.03998 h 1.59998 V 997.12 h -1.59998 z m 0,-57.44 h 1.59998 v 26.39996 h -1.59998 z m 3.03998,0 H 398.56 v 26.39996 h -1.60001 z m -3.03998,29.44 h 1.59998 V 969.12 h -1.59998 z m 3.03998,0 H 398.56 V 969.12 h -1.60001 z" /></g><g
       id="g558"><path
         id="path560"
         style="fill:#000000;fill-opacity:1;fill-rule:evenodd;stroke:none"
         d="M 131.67999,995.52002 H 393.92001 V 997.12 H 131.67999 Z m 0,3.03998 h 262.24002 v 1.6 H 131.67999 Z m 265.28,-3.03998 H 398.56 V 997.12 h -1.60001 z" /></g><g
       id="g562"><path
         id="path564"
         style="fill:#000000;fill-opacity:1;fill-rule:evenodd;stroke:none"
         d="M 393.92001,998.56 H 398.56 v 1.6 h -4.63999 z m 266.87998,-60.47998 h 1.60003 v 26.39996 h -1.60003 z m 3.04004,0 H 665.44 v 26.39996 h -1.59997 z m -3.04004,29.44 h 1.60003 V 969.12 h -1.60003 z" /></g><g
       id="g566"><path
         id="path568"
         style="fill:#000000;fill-opacity:1;fill-rule:evenodd;stroke:none"
         d="M 663.84003,964.47998 H 665.44 V 969.12 h -1.59997 z M 130.08,995.52002 h 1.59999 V 997.12 H 130.08 Z m -2.72,0 h 1.28 v 4.63998 h -1.28 z m 536.48003,0 H 665.44 v 4.63998 h -1.59997 z m -3.04004,0 h 1.60003 V 997.12 h -1.60003 z" /></g><g
       id="g570"><path
         id="path572"
         style="fill:#000000;fill-opacity:1;fill-rule:evenodd;stroke:none"
         d="m 127.36,969.12 h 1.28 v 26.40002 h -1.28 z m 2.72,0 h 1.59999 v 26.40002 H 130.08 Z m 266.87999,26.40002 H 398.56 V 997.12 h -1.60001 z m -3.03998,0 h 1.59998 V 997.12 h -1.59998 z M 660.79999,969.12 h 1.60003 v 26.40002 h -1.60003 z m 3.04004,0 H 665.44 v 26.40002 h -1.59997 z" /></g><g
       id="g574"><path
         id="path576"
         style="fill:#000000;fill-opacity:1;fill-rule:evenodd;stroke:none"
         d="m 393.92001,969.12 h 1.59998 v 26.40002 h -1.59998 z m 3.03998,0 H 398.56 v 26.40002 h -1.60001 z m 263.84,-795.68 h 1.60003 v 1.59999 h -1.60003 z" /></g><g
       id="g578"><path
         id="path580"
         style="fill:#000000;fill-opacity:1;fill-rule:evenodd;stroke:none"
         d="M 131.67999,170.39999 H 665.44 V 172 H 131.67999 Z" /></g><g
       id="g582"><path
         id="path584"
         style="fill:#000000;fill-opacity:1;fill-rule:evenodd;stroke:none"
         d="m 131.67999,173.44 h 529.12 v 1.59999 h -529.12 z m 529.12,31.04 h 1.60003 v 1.6 h -1.60003 z" /></g><g
       id="g586"><path
         id="path588"
         style="fill:#000000;fill-opacity:1;fill-rule:evenodd;stroke:none"
         d="m 398.56,201.44 h 263.84002 v 1.59999 H 398.56 Z" /></g><g
       id="g590"><path
         id="path592"
         style="fill:#000000;fill-opacity:1;fill-rule:evenodd;stroke:none"
         d="m 398.56,204.48 h 262.23999 v 1.6 H 398.56 Z m 262.23999,31.04 h 1.60003 v 1.59999 h -1.60003 z" /></g><g
       id="g594"><path
         id="path596"
         style="fill:#000000;fill-opacity:1;fill-rule:evenodd;stroke:none"
         d="m 398.56,232.48 h 263.84002 v 1.6 H 398.56 Z" /></g><g
       id="g598"><path
         id="path600"
         style="fill:#000000;fill-opacity:1;fill-rule:evenodd;stroke:none"
         d="m 398.56,235.52 h 262.23999 v 1.59999 H 398.56 Z m 262.23999,31.04 h 1.60003 v 1.6 h -1.60003 z" /></g><g
       id="g602"><path
         id="path604"
         style="fill:#000000;fill-opacity:1;fill-rule:evenodd;stroke:none"
         d="M 398.56,263.51999 H 662.40002 V 265.12 H 398.56 Z" /></g><g
       id="g606"><path
         id="path608"
         style="fill:#000000;fill-opacity:1;fill-rule:evenodd;stroke:none"
         d="m 398.56,266.56 h 262.23999 v 1.6 H 398.56 Z m 262.23999,31.04001 h 1.60003 v 1.6 h -1.60003 z" /></g><g
       id="g610"><path
         id="path612"
         style="fill:#000000;fill-opacity:1;fill-rule:evenodd;stroke:none"
         d="m 398.56,294.56 h 263.84002 v 1.6 H 398.56 Z" /></g><g
       id="g614"><path
         id="path616"
         style="fill:#000000;fill-opacity:1;fill-rule:evenodd;stroke:none"
         d="m 398.56,297.60001 h 262.23999 v 1.6 H 398.56 Z m 262.23999,31.04 h 1.60003 v 1.59998 h -1.60003 z" /></g><g
       id="g618"><path
         id="path620"
         style="fill:#000000;fill-opacity:1;fill-rule:evenodd;stroke:none"
         d="m 398.56,325.60001 h 263.84002 v 1.6 H 398.56 Z" /></g><g
       id="g622"><path
         id="path624"
         style="fill:#000000;fill-opacity:1;fill-rule:evenodd;stroke:none"
         d="m 398.56,328.64001 h 262.23999 v 1.59998 H 398.56 Z m 262.23999,31.03998 h 1.60003 V 361.28 h -1.60003 z" /></g><g
       id="g626"><path
         id="path628"
         style="fill:#000000;fill-opacity:1;fill-rule:evenodd;stroke:none"
         d="m 398.56,356.64001 h 263.84002 v 1.59998 H 398.56 Z" /></g><g
       id="g630"><path
         id="path632"
         style="fill:#000000;fill-opacity:1;fill-rule:evenodd;stroke:none"
         d="M 398.56,359.67999 H 660.79999 V 361.28 H 398.56 Z M 660.79999,390.72 h 1.60003 v 1.60001 h -1.60003 z" /></g><g
       id="g634"><path
         id="path636"
         style="fill:#000000;fill-opacity:1;fill-rule:evenodd;stroke:none"
         d="M 398.56,387.67999 H 662.40002 V 389.28 H 398.56 Z" /></g><g
       id="g638"><path
         id="path640"
         style="fill:#000000;fill-opacity:1;fill-rule:evenodd;stroke:none"
         d="m 398.56,390.72 h 262.23999 v 1.60001 H 398.56 Z m 262.23999,31.04001 h 1.60003 v 1.59998 h -1.60003 z" /></g><g
       id="g642"><path
         id="path644"
         style="fill:#000000;fill-opacity:1;fill-rule:evenodd;stroke:none"
         d="m 398.56,418.72 h 263.84002 v 1.60001 H 398.56 Z" /></g><g
       id="g646"><path
         id="path648"
         style="fill:#000000;fill-opacity:1;fill-rule:evenodd;stroke:none"
         d="m 398.56,421.76001 h 262.23999 v 1.59998 H 398.56 Z m 262.23999,31.03998 h 1.60003 v 1.6 h -1.60003 z" /></g><g
       id="g650"><path
         id="path652"
         style="fill:#000000;fill-opacity:1;fill-rule:evenodd;stroke:none"
         d="m 398.56,449.76001 h 263.84002 v 1.59998 H 398.56 Z" /></g><g
       id="g654"><path
         id="path656"
         style="fill:#000000;fill-opacity:1;fill-rule:evenodd;stroke:none"
         d="m 398.56,452.79999 h 262.23999 v 1.6 H 398.56 Z M 660.79999,483.84 h 1.60003 v 1.6 h -1.60003 z" /></g><g
       id="g658"><path
         id="path660"
         style="fill:#000000;fill-opacity:1;fill-rule:evenodd;stroke:none"
         d="m 398.56,480.79999 h 263.84002 v 1.6 H 398.56 Z" /></g><g
       id="g662"><path
         id="path664"
         style="fill:#000000;fill-opacity:1;fill-rule:evenodd;stroke:none"
         d="m 398.56,483.84 h 262.23999 v 1.6 H 398.56 Z m 262.23999,31.04 h 1.60003 v 1.59998 h -1.60003 z" /></g><g
       id="g666"><path
         id="path668"
         style="fill:#000000;fill-opacity:1;fill-rule:evenodd;stroke:none"
         d="m 398.56,511.84 h 263.84002 v 1.6 H 398.56 Z" /></g><g
       id="g670"><path
         id="path672"
         style="fill:#000000;fill-opacity:1;fill-rule:evenodd;stroke:none"
         d="m 398.56,514.88 h 262.23999 v 1.59998 H 398.56 Z m 262.23999,31.03998 h 1.60003 v 1.60004 h -1.60003 z" /></g><g
       id="g674"><path
         id="path676"
         style="fill:#000000;fill-opacity:1;fill-rule:evenodd;stroke:none"
         d="m 398.56,542.88 h 263.84002 v 1.59998 H 398.56 Z" /></g><g
       id="g678"><path
         id="path680"
         style="fill:#000000;fill-opacity:1;fill-rule:evenodd;stroke:none"
         d="m 398.56,545.91998 h 262.23999 v 1.60004 H 398.56 Z m 262.23999,31.04004 H 665.44 V 578.56 h -4.64001 z" /></g><g
       id="g682"><path
         id="path684"
         style="fill:#000000;fill-opacity:1;fill-rule:evenodd;stroke:none"
         d="m 398.56,573.91998 h 263.84002 v 1.60004 H 398.56 Z" /></g><g
       id="g686"><path
         id="path688"
         style="fill:#000000;fill-opacity:1;fill-rule:evenodd;stroke:none"
         d="M 398.56,576.96002 H 660.79999 V 578.56 H 398.56 Z m 262.23999,49.12 h 1.60003 v 1.59997 h -1.60003 z" /></g><g
       id="g690"><path
         id="path692"
         style="fill:#000000;fill-opacity:1;fill-rule:evenodd;stroke:none"
         d="M 131.67999,623.03998 H 665.44 v 1.60003 H 131.67999 Z" /></g><g
       id="g694"><path
         id="path696"
         style="fill:#000000;fill-opacity:1;fill-rule:evenodd;stroke:none"
         d="m 131.67999,626.08002 h 529.12 v 1.59997 h -529.12 z m 529.12,31.03998 h 1.60003 v 1.59997 h -1.60003 z" /></g><g
       id="g698"><path
         id="path700"
         style="fill:#000000;fill-opacity:1;fill-rule:evenodd;stroke:none"
         d="m 398.56,654.08002 h 263.84002 v 1.59997 H 398.56 Z" /></g><g
       id="g702"><path
         id="path704"
         style="fill:#000000;fill-opacity:1;fill-rule:evenodd;stroke:none"
         d="m 398.56,657.12 h 262.23999 v 1.59997 H 398.56 Z m 262.23999,31.03997 h 1.60003 v 1.60004 h -1.60003 z" /></g><g
       id="g706"><path
         id="path708"
         style="fill:#000000;fill-opacity:1;fill-rule:evenodd;stroke:none"
         d="m 398.56,685.12 h 263.84002 v 1.59997 H 398.56 Z" /></g><g
       id="g710"><path
         id="path712"
         style="fill:#000000;fill-opacity:1;fill-rule:evenodd;stroke:none"
         d="m 398.56,688.15997 h 262.23999 v 1.60004 H 398.56 Z m 262.23999,31.04004 h 1.60003 v 1.59998 h -1.60003 z" /></g><g
       id="g714"><path
         id="path716"
         style="fill:#000000;fill-opacity:1;fill-rule:evenodd;stroke:none"
         d="m 398.56,716.15997 h 263.84002 v 1.60004 H 398.56 Z" /></g><g
       id="g718"><path
         id="path720"
         style="fill:#000000;fill-opacity:1;fill-rule:evenodd;stroke:none"
         d="m 398.56,719.20001 h 262.23999 v 1.59998 H 398.56 Z m 262.23999,31.03998 h 1.60003 v 1.60004 h -1.60003 z" /></g><g
       id="g722"><path
         id="path724"
         style="fill:#000000;fill-opacity:1;fill-rule:evenodd;stroke:none"
         d="m 398.56,747.20001 h 263.84002 v 1.59998 H 398.56 Z" /></g><g
       id="g726"><path
         id="path728"
         style="fill:#000000;fill-opacity:1;fill-rule:evenodd;stroke:none"
         d="m 398.56,750.23999 h 262.23999 v 1.60004 H 398.56 Z m 262.23999,31.04004 h 1.60003 V 782.88 h -1.60003 z" /></g><g
       id="g730"><path
         id="path732"
         style="fill:#000000;fill-opacity:1;fill-rule:evenodd;stroke:none"
         d="m 398.56,778.23999 h 263.84002 v 1.60004 H 398.56 Z" /></g><g
       id="g734"><path
         id="path736"
         style="fill:#000000;fill-opacity:1;fill-rule:evenodd;stroke:none"
         d="M 398.56,781.28003 H 660.79999 V 782.88 H 398.56 Z m 262.23999,31.03998 h 1.60003 v 1.59997 h -1.60003 z" /></g><g
       id="g738"><path
         id="path740"
         style="fill:#000000;fill-opacity:1;fill-rule:evenodd;stroke:none"
         d="M 398.56,809.28003 H 662.40002 V 810.88 H 398.56 Z" /></g><g
       id="g742"><path
         id="path744"
         style="fill:#000000;fill-opacity:1;fill-rule:evenodd;stroke:none"
         d="m 398.56,812.32001 h 262.23999 v 1.59997 H 398.56 Z m 262.23999,31.03997 h 1.60003 v 1.60004 h -1.60003 z" /></g><g
       id="g746"><path
         id="path748"
         style="fill:#000000;fill-opacity:1;fill-rule:evenodd;stroke:none"
         d="m 398.56,840.32001 h 263.84002 v 1.59997 H 398.56 Z" /></g><g
       id="g750"><path
         id="path752"
         style="fill:#000000;fill-opacity:1;fill-rule:evenodd;stroke:none"
         d="m 398.56,843.35998 h 262.23999 v 1.60004 H 398.56 Z m 262.23999,31.04004 h 1.60003 V 876 h -1.60003 z" /></g><g
       id="g754"><path
         id="path756"
         style="fill:#000000;fill-opacity:1;fill-rule:evenodd;stroke:none"
         d="m 398.56,871.35998 h 263.84002 v 1.60004 H 398.56 Z" /></g><g
       id="g758"><path
         id="path760"
         style="fill:#000000;fill-opacity:1;fill-rule:evenodd;stroke:none"
         d="M 398.56,874.40002 H 660.79999 V 876 H 398.56 Z M 660.79999,905.44 h 1.60003 v 1.59998 h -1.60003 z" /></g><g
       id="g762"><path
         id="path764"
         style="fill:#000000;fill-opacity:1;fill-rule:evenodd;stroke:none"
         d="M 398.56,902.40002 H 662.40002 V 904 H 398.56 Z" /></g><g
       id="g766"><path
         id="path768"
         style="fill:#000000;fill-opacity:1;fill-rule:evenodd;stroke:none"
         d="m 398.56,905.44 h 262.23999 v 1.59998 H 398.56 Z m 262.23999,31.03998 h 1.60003 v 1.60004 h -1.60003 z" /></g><g
       id="g770"><path
         id="path772"
         style="fill:#000000;fill-opacity:1;fill-rule:evenodd;stroke:none"
         d="m 398.56,933.44 h 263.84002 v 1.59998 H 398.56 Z" /></g><g
       id="g774"><path
         id="path776"
         style="fill:#000000;fill-opacity:1;fill-rule:evenodd;stroke:none"
         d="m 398.56,936.47998 h 262.23999 v 1.60004 H 398.56 Z m 262.23999,31.04004 h 1.60003 V 969.12 h -1.60003 z" /></g><g
       id="g778"><path
         id="path780"
         style="fill:#000000;fill-opacity:1;fill-rule:evenodd;stroke:none"
         d="m 398.56,964.47998 h 263.84002 v 1.60004 H 398.56 Z" /></g><g
       id="g782"><path
         id="path784"
         style="fill:#000000;fill-opacity:1;fill-rule:evenodd;stroke:none"
         d="M 398.56,967.52002 H 660.79999 V 969.12 H 398.56 Z M 660.79999,998.56 H 665.44 v 1.6 h -4.64001 z" /></g><g
       id="g786"><path
         id="path788"
         style="fill:#000000;fill-opacity:1;fill-rule:evenodd;stroke:none"
         d="M 398.56,995.52002 H 662.40002 V 997.12 H 398.56 Z" /></g><g
       id="g790"><path
         id="path792"
         style="fill:#000000;fill-opacity:1;fill-rule:nonzero;stroke:none"
         d="m 398.56,998.56 h 262.23999 v 1.6 H 398.56 Z" /></g></g></svg>